{"title":"THEM!.1954.HQ.720p.x264.AC3.[FrOnkY]","uid":11909363,"size":3045056383,"categoryP":"video","categoryS":"hd___movies","magnet":"?xt=urn:btih:3c360a43bcbba2144f74f81572901a6d1d192c49&amp;dn=THEM%21.1954.HQ.720p.x264.AC3.%5BFrOnkY%5D&amp;tr=udp%3A%2F%2Ftracker.openbittorrent.com%3A80&amp;tr=udp%3A%2F%2Fopen.demonii.com%3A1337&amp;tr=udp%3A%2F%2Ftracker.coppersurfer.tk%3A6969&amp;tr=udp%3A%2F%2Fexodus.desync.com%3A6969","seeders":2,"leechers":2,"uploader":"HDmEntEs","files":1,"time":1431442578,"description":"THEM!.(Â¡La.Humanidad.En.Peligro!).1954.HQ.720p.x264.AC3.[FrOnkY].mkv\n\n\nFormat                                   : Matroska\nFormat version                           : Version 4 / Version 2\nFile size                                : 2.84 GiB\nDuration                                 : 1h 32mn\nOverall bit rate                         : 4 391 Kbps\nWriting application                      : mkvmerge v6.9.1 ('Blue Panther') 32bit\nWriting library                          : libebml v1.3.0 + libmatroska v1.4.1\nAttachements                             : THEM!1.jpg / THEM!2.jpg / THEM!3.jpg\n\nVideo\nID                                       : 1\nFormat                                   : AVC\nFormat/Info                              : Advanced Video Codec\nFormat profile                           : &lt;a class=&quot;__cf_email__&quot; href=&quot;/cdn-cgi/l/email-protection&quot; data-cfemail=&quot;f4bc9d939cb4b8c0dac5&quot;&gt;[email&amp;#160;protected]&lt;/a&gt;&lt;script cf-hash='f9e31' type=&quot;text/javascript&quot;&gt;\n/* &lt;![CDATA[ */!function(){try{var t=&quot;currentScript&quot;in document?document.currentScript:function(){for(var t=document.getElementsByTagName(&quot;script&quot;),e=t.length;e--;)if(t[e].getAttribute(&quot;cf-hash&quot;))return t[e]}();if(t&amp;&amp;t.previousSibling){var e,r,n,i,c=t.previousSibling,a=c.getAttribute(&quot;data-cfemail&quot;);if(a){for(e=&quot;&quot;,r=parseInt(a.substr(0,2),16),n=2;a.length-n;n+=2)i=parseInt(a.substr(n,2),16)^r,e+=String.fromCharCode(i);e=document.createTextNode(e),c.parentNode.replaceChild(e,c)}}}catch(u){}}();/* ]]&gt; */&lt;/script&gt;\nFormat settings, CABAC                   : Yes\nFormat settings, ReFrames                : 12 frames\nCodec ID                                 : V_MPEG4/ISO/AVC\nDuration                                 : 1h 32mn\nBit rate                                 : 4 004 Kbps\nWidth                                    : 960 pixels\nHeight                                   : 720 pixels\nDisplay aspect ratio                     : 4:3\nFrame rate mode                          : Constant\nFrame rate                               : 23.976 fps\nColor space                              : YUV\nChroma subsampling                       : 4:2:0\nBit depth                                : 8 bits\nScan type                                : Progressive\nBits/(Pixel*Frame)                       : 0.242\nStream size                              : 2.53 GiB (89%)\nWriting library                          : x264 core 142 r2491 24e4fed\nLanguage                                 : English\nDefault                                  : Yes\nForced                                   : No\n\nAudio #1\nID                                       : 2\nFormat                                   : AC-3\nFormat/Info                              : Audio Coding 3\nMode extension                           : CM (complete main)\nFormat settings, Endianness              : Big\nCodec ID                                 : A_AC3\nDuration                                 : 1h 32mn\nBit rate mode                            : Constant\nBit rate                                 : 192 Kbps\nChannel(s)                               : 2 channels\nChannel positions                        : Front: L R\nSampling rate                            : 48.0 KHz\nBit depth                                : 16 bits\nStream size                              : 127 MiB (4%)\nLanguage                                 : English\nDefault                                  : Yes\nForced                                   : No\n\nAudio #2\nID                                       : 3\nFormat                                   : AC-3\nFormat/Info                              : Audio Coding 3\nMode extension                           : CM (complete main)\nFormat settings, Endianness              : Big\nCodec ID                                 : A_AC3\nDuration                                 : 1h 32mn\nBit rate mode                            : Constant\nBit rate                                 : 192 Kbps\nChannel(s)                               : 1 channel\nChannel positions                        : Front: C\nSampling rate                            : 48.0 KHz\nBit depth                                : 16 bits\nStream size                              : 127 MiB (4%)\nLanguage                                 : Spanish\nDefault                                  : No\nForced                                   : No\n\nText #1\nID                                       : 4\nFormat                                   : UTF-8\nCodec ID                                 : S_TEXT/UTF8\nCodec ID/Info                            : UTF-8 Plain Text\nLanguage                                 : Spanish\nDefault                                  : Yes\nForced                                   : No\n\nText #2\nID                                       : 5\nFormat                                   : UTF-8\nCodec ID                                 : S_TEXT/UTF8\nCodec ID/Info                            : UTF-8 Plain Text\nLanguage                                 : Spanish\nDefault                                  : No\nForced                                   : No\n\nText #3\nID                                       : 6\nFormat                                   : UTF-8\nCodec ID                                 : S_TEXT/UTF8\nCodec ID/Info                            : UTF-8 Plain Text\nLanguage                                 : English\nDefault                                  : No\nForced                                   : No\n\nText #4\nID                                       : 7\nFormat                                   : UTF-8\nCodec ID                                 : S_TEXT/UTF8\nCodec ID/Info                            : UTF-8 Plain Text\nLanguage                                 : French\nDefault                                  : No\nForced                                   : No\n\nText #5\nID                                       : 8\nFormat                                   : UTF-8\nCodec ID                                 : S_TEXT/UTF8\nCodec ID/Info                            : UTF-8 Plain Text\nLanguage                                 : Portuguese\nDefault                                  : No\nForced                                   : No\n\nMenu\n00:00:00.000                             : en:Chapter 01\n00:01:21.000                             : en:Chapter 02\n00:04:10.888                             : en:Chapter 03\n00:08:34.999                             : en:Chapter 04\n00:10:17.777                             : en:Chapter 05\n00:13:43.333                             : en:Chapter 06\n00:16:47.111                             : en:Chapter 07\n00:19:00.333                             : en:Chapter 08\n00:22:51.333                             : en:Chapter 09\n00:24:28.111                             : en:Chapter 10\n00:27:28.222                             : en:Chapter 11\n00:31:18.999                             : en:Chapter 12\n00:34:54.555                             : en:Chapter 13\n00:37:45.666                             : en:Chapter 14\n00:42:16.888                             : en:Chapter 15\n00:46:12.777                             : en:Chapter 16\n00:48:03.555                             : en:Chapter 17\n00:53:35.222                             : en:Chapter 18\n00:58:32.888                             : en:Chapter 19\n01:01:39.444                             : en:Chapter 20\n01:04:25.999                             : en:Chapter 21\n01:06:39.777                             : en:Chapter 22\n01:08:24.444                             : en:Chapter 23\n01:10:33.222                             : en:Chapter 24\n01:13:49.222                             : en:Chapter 25\n01:16:49.111                             : en:Chapter 26\n01:21:16.999                             : en:Chapter 27\n01:25:53.111                             : en:Chapter 28\n01:27:55.999                             : en:Chapter 29\n01:30:43.888                             : en:Chapter 30\n\n\nSD - HQ\n &lt;a href=&quot;\nhttp://i.imgur.com/gZzkAsg.png&quot; rel=&quot;nofollow&quot; target=&quot;_NEW&quot;&gt;\nhttp://i.imgur.com/gZzkAsg.png&lt;/a&gt; &lt;a href=&quot;\nhttp://i.imgur.com/IjHBq5Z.jpg&quot; rel=&quot;nofollow&quot; target=&quot;_NEW&quot;&gt;\nhttp://i.imgur.com/IjHBq5Z.jpg&lt;/a&gt;","torrent":{"xt":"urn:btih:3c360a43bcbba2144f74f81572901a6d1d192c49","amp;dn":"THEM%21.1954.HQ.720p.x264.AC3.%5BFrOnkY%5D","amp;tr":["udp%3A%2F%2Ftracker.openbittorrent.com%3A80","udp%3A%2F%2Fopen.demonii.com%3A1337","udp%3A%2F%2Ftracker.coppersurfer.tk%3A6969","udp%3A%2F%2Fexodus.desync.com%3A6969"],"infoHash":"3c360a43bcbba2144f74f81572901a6d1d192c49","infoHashBuffer":{"type":"Buffer","data":[60,54,10,67,188,187,162,20,79,116,248,21,114,144,26,109,29,25,44,73]},"announce":[],"urlList":[]}}